<svg width="84" height="157" viewBox="0 0 84 157" fill="none" xmlns="http://www.w3.org/2000/svg">
<path opacity="0.0809617" fill-rule="evenodd" clip-rule="evenodd" d="M83.02 115.085C83.02 140.025 66.25 156.58 41.525 156.58C16.8 156.58 0.0299988 140.025 0.0299988 115.085V42.415C0.0299988 17.26 16.585 0.919983 41.31 0.919983C65.605 0.919983 81.515 16.83 82.16 42.2H52.92C52.06 34.245 48.62 29.3 41.31 29.3C34 29.3 29.485 33.17 29.485 41.985V60.905C33.785 57.465 40.45 55.53 46.47 55.53C68.4 55.53 83.02 71.87 83.02 93.8V115.085ZM29.485 114.87C29.485 123.255 34 128.2 41.525 128.2C49.05 128.2 53.565 123.255 53.565 114.87V95.95C53.565 87.35 49.265 82.19 41.74 82.19C34 82.19 29.485 87.35 29.485 95.95V114.87Z" fill="#E9F1FF"/>
</svg>
